<svg xmlns="http://www.w3.org/2000/svg" viewBox="0 0 460 350" width="460" height="350">
  <rect x="0" y="0" width="460" height="350" fill="#ffffff"/>
  <g stroke="#3a1414" stroke-width="2" stroke-linejoin="round">
    <polygon points="305,105 175,160 175,300 305,245" fill="#a52d2d"/>
    <polygon points="45,105 175,160 175,300 45,245" fill="#d94f4f"/>
    <polygon points="175,50 305,105 175,160 45,105" fill="#c73a3a"/>
    <polygon points="305,245 175,300 175,330 305,275" fill="#6e6e6e"/>
    <polygon points="45,245 175,300 175,330 45,275" fill="#8a8a8a"/>
  </g>
  <g fill="#7a1f1f" opacity="0.75">
    <circle cx="150" cy="85" r="4"/>
    <circle cx="200" cy="75" r="3"/>
    <circle cx="120" cy="100" r="3"/>
    <circle cx="240" cy="90" r="4"/>
    <circle cx="185" cy="105" r="3"/>
    <circle cx="260" cy="115" r="3"/>
  </g>
  <g fill="#5c1717" opacity="0.7">
    <circle cx="90" cy="150" r="5"/>
    <circle cx="115" cy="195" r="4"/>
    <circle cx="80" cy="225" r="4"/>
    <circle cx="125" cy="170" r="3.5"/>
    <circle cx="100" cy="240" r="3.5"/>
  </g>
  <g fill="#8f2626" opacity="0.7">
    <circle cx="255" cy="145" r="5"/>
    <circle cx="280" cy="190" r="4"/>
    <circle cx="245" cy="220" r="4"/>
    <circle cx="230" cy="165" r="3.5"/>
    <circle cx="270" cy="235" r="3.5"/>
  </g>
</svg>
